<svg
  width="40"
  height="40"
  viewBox="0 0 40 40"
  fill="none"
  xmlns="http://www.w3.org/2000/svg"
>
  <path
    d="M21.0237 40C15.3924 40 10.1087 37.8174 6.14556 33.8545C2.18247 29.8915 4.92373e-07 24.6074 4.92373e-07 18.9761C-0.000840163 15.0913 1.07481 11.2823 3.10756 7.97181C5.14031 4.66132 8.05064 1.97886 11.5155 0.222165C11.872 0.0404498 12.2741 -0.032245 12.6716 0.0131555C13.0692 0.058556 13.4445 0.220041 13.7508 0.477451C14.0571 0.734861 14.2809 1.07679 14.394 1.46057C14.5072 1.84434 14.5049 2.25294 14.3873 2.63538C13.3985 5.82896 13.3014 9.23201 14.1062 12.4768C14.9111 15.7216 16.5874 18.6847 18.954 21.046C20.6524 22.757 22.6732 24.1141 24.8996 25.0388C27.126 25.9635 29.5137 26.4374 31.9245 26.433C33.7687 26.4345 35.6026 26.1578 37.3644 25.6125C37.7468 25.4948 38.1555 25.4924 38.5393 25.6056C38.9231 25.7188 39.2651 25.9425 39.5226 26.2488C39.78 26.5552 39.9415 26.9306 39.9869 27.3282C40.0322 27.7257 39.9595 28.1279 39.7777 28.4843C38.021 31.9492 35.3385 34.8596 32.028 36.8923C28.7175 38.9251 24.9085 40.0008 21.0237 40V40ZM11.4428 3.31431C8.75593 4.94908 6.53646 7.24958 4.99903 9.99327C3.46161 12.737 2.65827 15.831 2.66673 18.9761C2.66673 29.0982 10.9016 37.3333 21.0237 37.3333C24.1688 37.3418 27.2629 36.5384 30.0066 35.001C32.7503 33.4636 35.0508 31.2441 36.6856 28.5573C35.1244 28.9186 33.5271 29.1007 31.9247 29.1C29.1636 29.1053 26.4288 28.5628 23.8788 27.5041C21.3288 26.4453 19.014 24.8913 17.0687 22.9319C14.5414 20.4094 12.6986 17.2845 11.7143 13.8522C10.7299 10.4199 10.6365 6.79329 11.4428 3.31481V3.31431Z"
    fill="currentColor"
  />
</svg>
