<svg
  width="41"
  height="41"
  viewBox="0 0 41 41"
  fill="none"
  xmlns="http://www.w3.org/2000/svg"
>
  <path
    d="M20.8124 15.1052C21.9426 15.1052 23.0474 15.4403 23.9871 16.0682C24.9268 16.6961 25.6592 17.5886 26.0917 18.6327C26.5242 19.6769 26.6374 20.8258 26.4169 21.9343C26.1964 23.0427 25.6522 24.0609 24.853 24.8601C24.0539 25.6592 23.0357 26.2035 21.9272 26.424C20.8187 26.6444 19.6698 26.5313 18.6256 26.0988C17.5815 25.6663 16.689 24.9339 16.0611 23.9942C15.4333 23.0545 15.0981 21.9497 15.0981 20.8195C15.1 19.3045 15.7026 17.8522 16.7739 16.781C17.8451 15.7097 19.2975 15.1071 20.8124 15.1052ZM20.8124 12.248C19.1171 12.248 17.4599 12.7508 16.0504 13.6926C14.6408 14.6344 13.5422 15.9731 12.8934 17.5393C12.2447 19.1056 12.0749 20.829 12.4057 22.4917C12.7364 24.1544 13.5527 25.6817 14.7515 26.8804C15.9502 28.0791 17.4775 28.8955 19.1402 29.2262C20.8029 29.5569 22.5263 29.3872 24.0925 28.7384C25.6588 28.0897 26.9974 26.9911 27.9393 25.5815C28.8811 24.1719 29.3838 22.5147 29.3838 20.8195C29.3838 18.5462 28.4808 16.366 26.8733 14.7586C25.2659 13.1511 23.0857 12.248 20.8124 12.248Z"
    fill="currentColor"
  />
  <path
    d="M5.66089 7.68793L7.68089 5.6665L12.6895 10.6751L10.6695 12.6951L5.66089 7.68793Z"
    fill="currentColor"
  />
  <path
    d="M0.8125 19.3911H7.95536V22.2483H0.8125V19.3911Z"
    fill="currentColor"
  />
  <path
    d="M5.66089 33.951L10.6695 28.9424L12.6895 30.9638L7.68089 35.971L5.66089 33.951Z"
    fill="currentColor"
  />
  <path
    d="M19.384 33.6768H22.2412V40.8196H19.384V33.6768Z"
    fill="currentColor"
  />
  <path
    d="M28.9368 30.9638L30.9568 28.9424L35.9653 33.951L33.9453 35.971L28.9368 30.9638Z"
    fill="currentColor"
  />
  <path
    d="M33.6697 19.3911H40.8125V22.2483H33.6697V19.3911Z"
    fill="currentColor"
  />
  <path
    d="M28.9368 10.6751L33.9453 5.6665L35.9653 7.68793L30.9568 12.6951L28.9368 10.6751Z"
    fill="currentColor"
  />
  <path
    d="M19.384 0.81958H22.2412V7.96244H19.384V0.81958Z"
    fill="currentColor"
  />
</svg>
